<svg width="1076" height="931" viewBox="0 0 1076 931" version="1.1" xmlns="http://www.w3.org/2000/svg" xmlns:xlink="http://www.w3.org/1999/xlink">
<title>vibd-hexagon</title>
<desc>Created using Figma</desc>
<g id="Canvas" transform="translate(-1513 -285)">
<g id="vibd-hexagon">
<g id="Group 2.1">
<g id="Group">
<g id="Canvas">
<g id="sticker frame">
<g id="sticker">
<g id="Hexagon">
<g id="Vector">
<g id="Vector">
<use xlink:href="#path0_fill" transform="translate(1522.24 293)" fill="#202123"/>
</g>
<g id="Vector">
<use xlink:href="#path1_fill" transform="translate(1513 285)" fill="#202123"/>
</g>
</g>
</g>
</g>
</g>
</g>
</g>
<g id="vibd">
<use xlink:href="#path2_fill" transform="translate(1848.4 658)" fill="#FFFFFF"/>
<use xlink:href="#path3_fill" transform="translate(1848.4 658)" fill="#FFFFFF"/>
<use xlink:href="#path4_fill" transform="translate(1848.4 658)" fill="#FFFFFF"/>
<use xlink:href="#path5_fill" transform="translate(1848.4 658)" fill="#FFFFFF"/>
</g>
</g>
</g>
</g>
<defs>
<path id="path0_fill" d="M 1057 457.5L 792.75 915L 264.25 915L 0 457.5L 264.25 -8.41116e-16L 792.75 -8.41116e-16L 1057 457.5Z"/>
<path id="path1_fill" d="M 1066.24 465.5L 1073.17 469.501L 1075.48 465.5L 1073.17 461.499L 1066.24 465.5ZM 801.989 923L 801.989 931L 806.607 931L 808.916 927.001L 801.989 923ZM 273.489 923L 266.562 927.001L 268.871 931L 273.489 931L 273.489 923ZM 9.23859 465.5L 2.31112 461.499L -2.40479e-07 465.5L 2.31112 469.501L 9.23859 465.5ZM 273.489 8L 273.489 0L 268.871 0L 266.562 3.99873L 273.489 8ZM 801.989 8L 808.916 3.99873L 806.607 0L 801.989 0L 801.989 8ZM 1059.31 461.499L 795.062 918.999L 808.916 927.001L 1073.17 469.501L 1059.31 461.499ZM 801.989 915L 273.489 915L 273.489 931L 801.989 931L 801.989 915ZM 280.416 918.999L 16.1661 461.499L 2.31112 469.501L 266.562 927.001L 280.416 918.999ZM 16.1661 469.501L 280.416 12.0013L 266.562 3.99873L 2.31112 461.499L 16.1661 469.501ZM 273.489 16L 801.989 16L 801.989 0L 273.489 0L 273.489 16ZM 795.062 12.0013L 1059.31 469.501L 1073.17 461.499L 808.916 3.99873L 795.062 12.0013Z"/>
<path id="path2_fill" d="M 99.2 46L 57.6 146L 41.6 146L 0 46L 18.2 46L 49.8 129.8L 82.4 46L 99.2 46Z"/>
<path id="path3_fill" d="M 128.106 26.8C 124.506 26.8 121.573 25.7333 119.306 23.6C 117.173 21.3333 116.106 18.4 116.106 14.8C 116.106 11.2 117.173 8.33333 119.306 6.2C 121.573 3.93333 124.506 2.8 128.106 2.8C 131.706 2.8 134.573 3.93333 136.706 6.2C 138.973 8.33333 140.106 11.2 140.106 14.8C 140.106 18.4 138.973 21.3333 136.706 23.6C 134.573 25.7333 131.706 26.8 128.106 26.8ZM 136.106 146L 120.106 146L 120.106 46L 136.106 46L 136.106 146Z"/>
<path id="path4_fill" d="M 222.431 44C 236.431 44 247.498 48.6667 255.631 58C 263.898 67.2 268.031 79.8667 268.031 96C 268.031 112.133 263.898 124.867 255.631 134.2C 247.498 143.4 236.431 148 222.431 148C 214.698 148 207.765 146.267 201.631 142.8C 195.631 139.2 191.165 134.467 188.231 128.6L 187.231 146L 173.231 146L 173.231 0L 189.231 0L 189.231 61.6C 192.431 56.2667 196.898 52 202.631 48.8C 208.498 45.6 215.098 44 222.431 44ZM 220.631 134C 230.365 134 238.031 130.6 243.631 123.8C 249.231 116.867 252.031 107.6 252.031 96C 252.031 84.4 249.231 75.2 243.631 68.4C 238.031 61.4667 230.365 58 220.631 58C 211.031 58 203.365 61.3333 197.631 68C 192.031 74.6667 189.231 83.6 189.231 94.8L 189.231 97.2C 189.231 108.4 192.031 117.333 197.631 124C 203.365 130.667 211.031 134 220.631 134Z"/>
<path id="path5_fill" d="M 388.008 0L 388.008 146L 374.008 146L 373.008 128.6C 370.074 134.467 365.541 139.2 359.408 142.8C 353.408 146.267 346.541 148 338.808 148C 324.808 148 313.674 143.4 305.408 134.2C 297.274 124.867 293.208 112.133 293.208 96C 293.208 79.8667 297.274 67.2 305.408 58C 313.674 48.6667 324.808 44 338.808 44C 346.141 44 352.674 45.6 358.408 48.8C 364.274 52 368.808 56.2667 372.008 61.6L 372.008 0L 388.008 0ZM 340.608 134C 350.208 134 357.808 130.667 363.408 124C 369.141 117.333 372.008 108.4 372.008 97.2L 372.008 94.8C 372.008 83.6 369.141 74.6667 363.408 68C 357.808 61.3333 350.208 58 340.608 58C 330.874 58 323.208 61.4667 317.608 68.4C 312.008 75.2 309.208 84.4 309.208 96C 309.208 107.6 312.008 116.867 317.608 123.8C 323.208 130.6 330.874 134 340.608 134Z"/>
</defs>
</svg>
